<?xml version="1.0" encoding="utf-8"?>
<!-- Generator: Adobe Illustrator 16.0.0, SVG Export Plug-In . SVG Version: 6.00 Build 0)  -->
<!DOCTYPE svg PUBLIC "-//W3C//DTD SVG 1.1//EN" "http://www.w3.org/Graphics/SVG/1.1/DTD/svg11.dtd">
<svg version="1.1" id="Layer_1" xmlns="http://www.w3.org/2000/svg" xmlns:xlink="http://www.w3.org/1999/xlink" x="0px" y="0px"
	 width="48px" height="48px" viewBox="0 0 48 48" enable-background="new 0 0 48 48" xml:space="preserve">
<g>
	<path d="M37.407,8.132c-0.435,0-0.862,0.031-1.281,0.09c-1.52-1.833-3.813-3-6.379-3c-0.492,0-0.975,0.043-1.443,0.125
		c-2.106-2.663-5.367-4.371-9.024-4.371c-4.904,0-9.09,3.067-10.745,7.388c-4.091,0.935-7.144,4.597-7.144,8.971
		c0,5.083,4.122,9.202,9.203,9.202c0.048,0,0.097-0.001,0.145-0.001c2.013,3.326,6.664,5.655,12.083,5.655
		c5.576,0,10.342-2.469,12.252-5.952c0.745,0.195,1.527,0.299,2.334,0.299c5.082,0,9.202-4.12,9.202-9.202
		S42.489,8.132,37.407,8.132z"/>
	<path d="M8.022,37.225c0,1.208,0.98,2.189,2.188,2.189c1.21,0,2.189-0.98,2.189-2.189c0-0.779-0.91-2.283-1.557-3.253
		c-0.302-0.453-0.964-0.453-1.266,0C8.932,34.942,8.022,36.446,8.022,37.225z"/>
	<path d="M31.215,38.384c0,1.208,0.98,2.189,2.187,2.189c1.211,0,2.19-0.98,2.19-2.189c0-0.779-0.91-2.283-1.558-3.253
		c-0.302-0.453-0.964-0.452-1.265,0C32.123,36.102,31.215,37.605,31.215,38.384z"/>
	<path d="M13.15,45.081c0,0.888,0.72,1.607,1.607,1.607s1.606-0.719,1.606-1.607c0-0.505-0.521-1.425-0.969-2.125
		c-0.297-0.464-0.979-0.464-1.275,0C13.671,43.655,13.15,44.575,13.15,45.081z"/>
	<path d="M26.851,45.081c0,0.888,0.718,1.607,1.605,1.607s1.608-0.719,1.608-1.607c0-0.505-0.521-1.426-0.97-2.125
		c-0.298-0.463-0.979-0.463-1.276,0.001C27.37,43.655,26.851,44.576,26.851,45.081z"/>
	<path d="M19.618,40.704c0,1.208,0.981,2.189,2.188,2.189c1.209,0,2.188-0.98,2.188-2.189c0-0.779-0.909-2.283-1.556-3.253
		c-0.302-0.453-0.964-0.453-1.266,0C20.527,38.421,19.618,39.925,19.618,40.704z"/>
</g>
</svg>
