<?xml version="1.0" encoding="utf-8"?>
<!-- Generator: Adobe Illustrator 16.0.0, SVG Export Plug-In . SVG Version: 6.00 Build 0)  -->
<!DOCTYPE svg PUBLIC "-//W3C//DTD SVG 1.1//EN" "http://www.w3.org/Graphics/SVG/1.1/DTD/svg11.dtd">
<svg version="1.1" id="Layer_1" xmlns="http://www.w3.org/2000/svg" xmlns:xlink="http://www.w3.org/1999/xlink" x="0px" y="0px"
	 width="48px" height="48px" viewBox="0 0 48 48" enable-background="new 0 0 48 48" xml:space="preserve">
<path d="M40.354,23.371c0.07-0.401,0.114-0.812,0.114-1.232c0-3.926-3.183-7.108-7.108-7.108c-0.856,0-1.675,0.159-2.436,0.437
	C28.61,11.88,24.587,9.498,20,9.498c-7.18,0-13,5.82-13,13c0,0.337,0.025,0.668,0.051,0.999C3.576,24.369,1,27.504,1,31.248
	c0,4.418,3.582,8,8,8h30c4.418,0,8-3.582,8-8C47,27.293,44.126,24.016,40.354,23.371z"/>
</svg>
