<?xml version="1.0" encoding="iso-8859-1"?>
<!-- Generator: Adobe Illustrator 16.0.0, SVG Export Plug-In . SVG Version: 6.00 Build 0)  -->
<!DOCTYPE svg PUBLIC "-//W3C//DTD SVG 1.1//EN" "http://www.w3.org/Graphics/SVG/1.1/DTD/svg11.dtd">
<svg version="1.1" xmlns="http://www.w3.org/2000/svg" xmlns:xlink="http://www.w3.org/1999/xlink" x="0px" y="0px" width="512px"
	 height="512px" viewBox="0 0 512 512" style="enable-background:new 0 0 512 512;" xml:space="preserve">
<g id="Artwork">
</g>
<g id="Layer_3">
	<g>
		<path d="M379.364,135.245c-11.492,0-22.45,2.264-32.479,6.339c-12.399-32.501-43.846-55.597-80.701-55.597
			c-6.725,0-13.26,0.794-19.542,2.248c-21.106-16.887-47.874-26.99-77.005-26.99c-68.132,0-123.364,55.232-123.364,123.364
			c0,68.133,55.232,123.364,123.364,123.364h209.729c47.697,0,86.364-38.666,86.364-86.364
			C465.729,173.912,427.062,135.245,379.364,135.245z"/>
		<path d="M232.716,348.313l-8.28,4.781l1.188-8.801l-7.307-0.987l-1.95,14.446l-6.677,3.854c-2.453-2.719-5.735-4.672-9.445-5.462
			v-7.7l11.535-8.912l-4.507-5.835l-7.028,5.43v-9.562h-7.374v9.562l-7.028-5.43l-4.508,5.835l11.536,8.912v7.7
			c-3.709,0.789-6.992,2.743-9.445,5.462l-6.676-3.854l-1.95-14.446l-7.308,0.987l1.188,8.8l-8.28-4.78l-3.687,6.386l8.28,4.78
			l-8.215,3.371l2.799,6.822l13.485-5.535l6.67,3.852c-0.559,1.72-0.865,3.553-0.865,5.457c0,1.903,0.306,3.736,0.865,5.457
			l-6.67,3.85l-13.485-5.534l-2.799,6.822l8.216,3.371l-8.281,4.781l3.687,6.386l8.281-4.781l-1.188,8.801l7.308,0.986l1.95-14.446
			l6.675-3.854c2.453,2.719,5.736,4.672,9.445,5.462v7.699l-11.536,8.912l4.509,5.835l7.027-5.429v9.562h7.374v-9.562l7.028,5.429
			l4.507-5.835l-11.535-8.912v-7.699c3.71-0.79,6.992-2.744,9.445-5.463l6.677,3.854l1.95,14.446l7.307-0.986l-1.188-8.801
			l8.28,4.781l3.687-6.386l-8.282-4.781l8.217-3.371l-2.799-6.822l-13.486,5.534l-6.671-3.851c0.561-1.72,0.867-3.553,0.867-5.456
			c0-1.904-0.306-3.736-0.867-5.457l6.671-3.852l13.486,5.535l2.799-6.822l-8.215-3.371l8.28-4.78L232.716,348.313z
			 M196.558,383.761c-5.688,0-10.315-4.628-10.315-10.315c0-5.688,4.627-10.317,10.315-10.317c5.688,0,10.316,4.629,10.316,10.317
			C206.874,379.133,202.246,383.761,196.558,383.761z"/>
		<path d="M349.107,389.96l-7.295,4.212l1.047-7.753l-6.438-0.869l-1.718,12.726l-5.881,3.396c-2.161-2.395-5.053-4.115-8.32-4.812
			v-6.783l10.161-7.851l-3.971-5.141l-6.19,4.783v-8.423h-6.495v8.423l-6.191-4.783l-3.971,5.141l10.162,7.851v6.783
			c-3.268,0.695-6.16,2.417-8.321,4.812l-5.88-3.396l-1.719-12.726l-6.437,0.869l1.046,7.752l-7.294-4.211l-3.248,5.625l7.295,4.211
			l-7.238,2.97l2.466,6.01l11.88-4.875l5.876,3.393c-0.492,1.515-0.762,3.13-0.762,4.807c0,1.678,0.27,3.292,0.762,4.808
			l-5.876,3.392l-11.88-4.875l-2.465,6.009l7.237,2.97l-7.296,4.212l3.249,5.625l7.294-4.212l-1.046,7.753l6.437,0.869l1.719-12.726
			l5.88-3.395c2.161,2.395,5.054,4.115,8.321,4.811v6.783l-10.162,7.851l3.972,5.14l6.19-4.782v8.424h6.495v-8.424l6.19,4.782
			l3.971-5.14l-10.161-7.851v-6.783c3.268-0.695,6.159-2.417,8.32-4.812l5.881,3.396l1.718,12.726l6.438-0.869l-1.047-7.753
			l7.295,4.212l3.247-5.625l-7.295-4.212l7.238-2.97l-2.467-6.009l-11.88,4.875l-5.876-3.393c0.493-1.515,0.763-3.129,0.763-4.807
			c0-1.677-0.27-3.292-0.763-4.807l5.876-3.393l11.88,4.875l2.467-6.01l-7.237-2.97l7.294-4.211L349.107,389.96z M317.255,421.188
			c-5.011,0-9.087-4.077-9.087-9.088s4.076-9.088,9.087-9.088s9.088,4.077,9.088,9.088S322.266,421.188,317.255,421.188z"/>
	</g>
</g>
</svg>
