<?xml version="1.0" encoding="utf-8"?>
<!-- Generator: Adobe Illustrator 16.0.0, SVG Export Plug-In . SVG Version: 6.00 Build 0)  -->
<!DOCTYPE svg PUBLIC "-//W3C//DTD SVG 1.1//EN" "http://www.w3.org/Graphics/SVG/1.1/DTD/svg11.dtd">
<svg version="1.1" id="Layer_1" xmlns="http://www.w3.org/2000/svg" xmlns:xlink="http://www.w3.org/1999/xlink" x="0px" y="0px"
	 width="48px" height="48px" viewBox="0 0 48 48" enable-background="new 0 0 48 48" xml:space="preserve">
<g>
	<path d="M17.094,22.953c0.338,0,0.675,0.018,1.01,0.053c1.081-2.263,3.016-4.02,5.338-4.896c-0.919-3.147-3.831-5.454-7.272-5.454
		c-4.177,0-7.574,3.398-7.574,7.576c0,1.988,0.771,3.802,2.03,5.155C12.349,23.874,14.614,22.953,17.094,22.953z"/>
	<path d="M16.178,10.431c0.816,0,1.464-0.662,1.464-1.479V6.588c0-0.816-0.647-1.478-1.464-1.478s-1.465,0.661-1.465,1.478v2.364
		C14.713,9.769,15.361,10.431,16.178,10.431z"/>
	<path d="M25.19,13.301l1.671-1.673c0.578-0.576,0.578-1.512,0-2.09c-0.576-0.576-1.512-0.576-2.089,0l-1.672,1.672
		c-0.577,0.578-0.577,1.514,0,2.091C23.677,13.878,24.613,13.878,25.19,13.301z"/>
	<path d="M4.89,18.748H2.525c-0.817,0-1.478,0.647-1.478,1.464s0.66,1.465,1.478,1.465H4.89c0.816,0,1.478-0.648,1.478-1.465
		S5.706,18.748,4.89,18.748z"/>
	<path d="M9.238,11.21L7.566,9.539c-0.577-0.577-1.514-0.577-2.091,0s-0.577,1.513,0,2.089l1.673,1.673
		c0.577,0.577,1.514,0.577,2.09,0C9.815,12.724,9.815,11.788,9.238,11.21z"/>
	<path d="M38.462,24.653c-1.509,0-2.906,0.396-4.125,1.09c-0.128,0.072-0.271,0.109-0.415,0.109c-0.106,0-0.213-0.021-0.314-0.062
		c-0.238-0.096-0.42-0.294-0.493-0.54c-0.812-2.726-3.326-4.712-6.315-4.712c-3.164,0-5.792,2.226-6.438,5.196
		c-0.051,0.233-0.2,0.436-0.407,0.554c-0.129,0.072-0.273,0.109-0.417,0.109c-0.09,0-0.182-0.015-0.268-0.044
		c-0.682-0.232-1.414-0.359-2.176-0.359c-3.715,0-6.725,2.976-6.725,6.641c0,7.363,5.188,9.545,9.396,9.545h18.09
		c4.991,0,9.037-4.05,9.037-9.042C46.892,28.453,43.148,24.653,38.462,24.653z"/>
</g>
</svg>
